<svg xmlns="http://www.w3.org/2000/svg" viewBox="0 0 50.8 50.8"><g fill-rule="evenodd"><path fill="#b1aea5" stroke="#000" stroke-width=".1" d="m 16.169806,45.354382 v 3.374279 h -1.00226 c -0.367184,-1.370349 -0.910371,-1.707054 -1.703843,-1.703843 v -1.035669 h -2.806331 c -0.307924,0 -0.7638129,-0.156097 -0.8000095,-0.461886 l -0.502929,-4.24874 c -0.051332,-0.433655 0.2183417,-1.134535 0.6550245,-1.134535 h 2.117897 c 0.421948,0 1.113504,0.07995 1.222712,-0.327625 l 0.824965,-3.07881 c 0.09535,-0.355866 0.413117,-0.781545 0.781537,-0.781537 l 10.290582,2.22e-4 10.290582,2.22e-4 c 0.36842,0 0.686187,0.425671 0.781537,0.781537 l 0.824965,3.07881 c 0.109208,0.407575 0.800764,0.327625 1.222712,0.327625 h 2.117897 c 0.436683,0 0.706354,0.70088 0.655024,1.134535 l -0.502929,4.24874 c -0.0362,0.305789 -0.492085,0.461886 -0.800009,0.461886 h -2.806331 v 1.035669 c -0.793472,-0.0032 -1.336659,0.333494 -1.703843,1.703843 h -1.00226 v -3.374279 l -9.077345,-2.22e-4 z"/><path fill="#fff9f9" stroke="#000" stroke-width=".3" stroke-miterlimit="0" d="m 24.143229,1.190625 c -1.513217,0 -3.025886,0.087771 -4.535714,0.1889881 -1.310284,0.08784 -2.623649,0.1776363 -3.921503,0.3779762 C 14.632547,1.9202046 13.573224,2.112502 12.567708,2.4662946 11.856313,2.7166002 11.162684,3.0701839 10.583333,3.5529762 10.099384,3.956267 9.7684304,4.5216752 9.4494048,5.064881 9.1812999,5.5213841 8.8773857,6.0018123 8.8351935,6.5295387 l -1.5355289,19.2059133 -0.047248,3.921503 0.023625,1.346541 -0.2338609,6.110265 0.1169304,1.6335 c 0,0 0.1194404,0.68771 0.7851121,0.689603 h 4.5762378 c 0.457667,0 0.695607,-0.388679 0.695607,-1.204826 l 0.167043,-1.795133 c 0.122588,-0.457503 0.430757,-0.943187 0.902564,-1.069607 h 10.920612 10.92061 c 0.471807,0.126421 0.779976,0.612103 0.902564,1.069608 l 0.167043,1.795131 c 0,0.816147 0.23794,1.204828 0.695607,1.204828 h 4.576238 c 0.665671,-0.0019 0.785112,-0.689605 0.785112,-0.689605 l 0.11693,-1.6335 L 43.13653,31.003496 43.16016,29.656955 43.11291,25.735452 41.577381,6.5295389 C 41.535191,6.0018124 41.231275,5.5213843 40.96317,5.064881 40.644144,4.5216753 40.313191,3.956267 39.829242,3.5529763 39.249891,3.070184 38.556262,2.7166003 37.844867,2.4662947 36.839351,2.1125021 35.780028,1.9202047 34.726563,1.7575894 33.428709,1.5572495 32.115344,1.4674535 30.80506,1.3796132 29.295232,1.2783957 27.782563,1.1906251 26.269346,1.1906251 Z" paint-order="stroke markers fill" color="#000" overflow="visible" stroke-linejoin="round" solid-color="#000000" style="isolation:auto;mix-blend-mode:normal"/><path fill="#fff" stroke="#000" stroke-width=".1" stroke-miterlimit="0" d="M 15.618562,4.746119 A 1.2027128,1.2027128 0 0 1 14.426833,5.9487816 1.2027128,1.2027128 0 0 1 13.213338,4.7680852 1.2027128,1.2027128 0 0 1 14.382903,3.5438576 1.2027128,1.2027128 0 0 1 15.61776,4.702194" style="isolation:auto;mix-blend-mode:normal" overflow="visible" color="#000" stroke-linecap="square" stroke-linejoin="round" solid-color="#000000"/><path fill="red" d="M 15.117433,4.9298668 A 0.52618688,0.52618688 0 0 1 14.596051,5.4560317 0.52618688,0.52618688 0 0 1 14.065147,4.939477 0.52618688,0.52618688 0 0 1 14.576831,4.4038774 0.52618688,0.52618688 0 0 1 15.117081,4.9106496" style="isolation:auto;mix-blend-mode:normal" overflow="visible" color="#000" stroke-linecap="square" stroke-linejoin="round" solid-color="#000000"/><path fill="#fff" stroke="#000" stroke-width=".1" stroke-miterlimit="0" d="m -34.79401,4.746119 a 1.2027128,1.2027128 0 0 1 -1.19173,1.2026626 1.2027128,1.2027128 0 0 1 -1.213495,-1.1806964 1.2027128,1.2027128 0 0 1 1.169565,-1.2242276 1.2027128,1.2027128 0 0 1 1.234857,1.1583364" overflow="visible" style="isolation:auto;mix-blend-mode:normal" color="#000" transform="scale(-1 1)" stroke-linecap="square" stroke-linejoin="round" solid-color="#000000"/><path fill="red" d="m -35.29514,4.9298668 a 0.52618688,0.52618688 0 0 1 -0.521382,0.5261649 0.52618688,0.52618688 0 0 1 -0.530904,-0.5165547 0.52618688,0.52618688 0 0 1 0.511685,-0.5355996 0.52618688,0.52618688 0 0 1 0.54025,0.5067722" overflow="visible" style="isolation:auto;mix-blend-mode:normal" color="#000" transform="scale(-1 1)" stroke-linecap="square" stroke-linejoin="round" solid-color="#000000"/><path fill="#272e86" d="M 7.2996649,25.735452 H 43.11291 l 0.07087,3.921503 H 7.2524169 Z" style="isolation:auto;mix-blend-mode:normal" color="#000" overflow="visible" solid-color="#000000"/><path fill="#fff" stroke="#000" stroke-width=".1" d="M39.220661 28.282542H32.10461c-.440973 0-.801203-.5154-.935444-.935444-.234137-.732621-.161921-1.536128-.171097-2.305199L30.868488 8.2373278c-.0052-.6781689.435435-1.4135728 1.017284-1.7619869.245047-.1467353.620546-.2226593.92042-.1423083l5.103209 1.3674005C38.606623 7.887253 38.93876 8.855927 38.992126 9.575769l1.230795 16.602026c.05745.774939-.225194 2.104747-1.00226 2.104747zM33.0239 5.5273438L38.125463 6.8945314c.665186.178236 1.073581.6886725 1.314453 1.171875.240872.4832024.35259.9869136.386718 1.4472656l1.230469 16.601562c.0388.523328.08457 1.178933-.131975 1.758279-.108273.289671-.315934.591108-.568825.847748-.25289.256641-.70233.397881-1.135137.397881h-7.117188c-.546207 0-.948012-.29981-1.207031-.589844-.259019-.290036-.422436-.605586-.525391-.927735-.318375-.996206-.225315-1.892772-.233166-2.550782L30.031713 8.2480471C30.019183 7.1980566 30.588608 6.2769364 31.455541 5.7578126 31.91813 5.4808123 32.430536 5.3683525 33.0239 5.5273438zM11.191911 28.282542h7.116051c.440973 0 .801203-.515401.935444-.935444.234137-.732621.161921-1.536128.171097-2.305199L19.544084 8.2373277C19.549313 7.5591587 19.108649 6.823755 18.5268 6.4753407 18.281753 6.3286055 17.906254 6.2526815 17.60638 6.3330324L12.503171 7.7004331C11.805949 7.887253 11.473812 8.855927 11.420446 9.5757684L10.189651 26.177795c-.05745.774939.225194 2.104747 1.00226 2.104747zM17.388672 5.5273438L12.287109 6.8945312c-.665186.1782361-1.073581.6886727-1.314453 1.171875-.240872.4832024-.35259.9869139-.386718 1.4472657L9.3554688 26.115234c-.038797.523328-.08457 1.178933.1319754 1.758278.1082724.289673.3159341.59111.5688248.84775.25289.256639.70233.397879 1.135137.397879h7.117188c.546207 0 .948012-.29981 1.207031-.589844.259019-.290034.422436-.605586.525391-.927735.318375-.996205.225315-1.892771.233166-2.550781L20.380859 8.2480469C20.393384 7.1980564 19.823964 6.2769364 18.957031 5.7578125 18.494442 5.4808123 17.982036 5.3683524 17.388672 5.5273438z"/><path fill="#d83e48" d="m 41.486617,31.790454 h -3.195566 c -0.354575,0 -0.473556,0.402956 -0.473556,0.540375 v 2.368701 c 0,0.137419 0.110629,0.465203 0.456851,0.465203 h 3.170511 c 0.387983,0 0.548725,-0.361193 0.548725,-0.498612 v -2.310236 c 0,-0.137417 -0.194151,-0.565431 -0.506965,-0.565431 z m -32.5606626,1e-6 h 3.1955666 c 0.354575,0 0.473556,0.402955 0.473556,0.540373 v 2.368702 c 0,0.137418 -0.110629,0.465202 -0.456851,0.465202 H 8.9677152 c -0.3879832,0 -0.5487251,-0.361193 -0.5487251,-0.498611 v -2.310236 c 0,-0.137418 0.1941506,-0.56543 0.5069643,-0.56543 z m 5.3597206,3.576843 c -0.471807,0.12642 -0.779976,0.612104 -0.902564,1.069607 l -0.167043,1.795133 c 0,0.816147 -0.23794,1.204826 -0.695607,1.204826 H 7.9442233 C 7.2785516,39.434971 7.1591112,38.747261 7.1591112,38.747261 l -0.1169304,-1.6335 0.2338608,-6.110265 H 25.206286 43.13653 l 0.233861,6.110264 -0.11693,1.6335 c 0,0 -0.119441,0.687711 -0.785112,0.689605 h -4.576238 c -0.457667,0 -0.695607,-0.388681 -0.695607,-1.204828 L 37.029461,36.436906 C 36.906873,35.979401 36.598704,35.493719 36.126897,35.367298 H 25.206286 Z" style="isolation:auto;mix-blend-mode:normal" color="#000" overflow="visible" solid-color="#000000"/><path fill="#fff" stroke="#000" stroke-width=".1" d="m 23.985767,11.348735 h 2.517643 c 1.260669,0 1.695542,0.621666 1.703063,1.393787 l 0.07087,7.276042 c 0.0075,0.772121 -0.77127,1.393787 -1.464904,1.393787 h -3.27769 c -0.693633,0 -1.535181,-0.621828 -1.517637,-1.393787 l 0.165365,-7.276042 c 0.01755,-0.771959 0.533356,-1.393787 1.803289,-1.393787 z" solid-color="#000000" paint-order="markers fill stroke" color="#000" overflow="visible" stroke-linecap="square" stroke-linejoin="round" style="isolation:auto;mix-blend-mode:normal"/><path stroke="#000" fill="#494949" stroke-width=".1" d="m 23.574065,12.295928 h 3.259489 c 0.305389,0 0.542001,0.342806 0.551243,0.7684 l 0.141987,6.53833 c 0.0092,0.425593 -0.245854,0.7684 -0.551243,0.7684 h -3.543463 c -0.305389,0 -0.560486,-0.342807 -0.551244,-0.7684 l 0.141987,-6.53833 c 0.0092,-0.425594 0.245855,-0.7684 0.551244,-0.7684 z" style="isolation:auto;mix-blend-mode:normal" color="#000" overflow="visible" solid-color="#000000" stroke-linecap="square" stroke-linejoin="round" paint-order="stroke markers fill"/></g></svg>
